<svg width="1360" height="264" viewBox="0 0 1360 264" id="logo" fill="none" xmlns="http://www.w3.org/2000/svg">
<path d="M25.5571 185.381H28.5869L26.8047 193.366L17.0737 223.949H14.0796L16.2896 214.895L25.5571 185.381ZM14.7925 215.073L16.5391 223.949H13.438L2.24561 185.381H6.66553L14.7925 215.073ZM48.1201 185.381H52.5044L41.312 223.949H38.2466L40.1714 214.966L48.1201 185.381ZM38.3892 214.646L40.6704 223.949H37.6763L27.7314 193.33L26.0562 185.381H29.2285L38.3892 214.646ZM58.3501 204.095C58.3501 200.34 59.063 197.001 60.4888 194.079C61.9146 191.156 63.9106 188.863 66.4771 187.199C69.0435 185.512 72.0614 184.668 75.5308 184.668C79.0239 184.668 82.0656 185.512 84.6558 187.199C87.2459 188.863 89.242 191.156 90.644 194.079C92.0698 197.001 92.7827 200.34 92.7827 204.095V205.271C92.7827 209.002 92.0698 212.329 90.644 215.251C89.242 218.174 87.2459 220.479 84.6558 222.167C82.0894 223.83 79.0715 224.662 75.6021 224.662C72.1089 224.662 69.0672 223.83 66.4771 222.167C63.9106 220.479 61.9146 218.174 60.4888 215.251C59.063 212.329 58.3501 209.002 58.3501 205.271V204.095ZM62.6274 205.271C62.6274 208.075 63.1265 210.677 64.1245 213.077C65.1226 215.477 66.584 217.414 68.5088 218.887C70.4336 220.337 72.798 221.062 75.6021 221.062C78.3823 221.062 80.723 220.337 82.624 218.887C84.5488 217.414 86.0103 215.477 87.0083 213.077C88.0063 210.677 88.5054 208.075 88.5054 205.271V204.095C88.5054 201.314 88.0063 198.724 87.0083 196.324C86.0103 193.924 84.5488 191.987 82.624 190.514C80.6992 189.017 78.3348 188.269 75.5308 188.269C72.7505 188.269 70.3979 189.017 68.4731 190.514C66.5483 191.987 65.0869 193.924 64.0889 196.324C63.1146 198.724 62.6274 201.314 62.6274 204.095V205.271ZM99.27 204.095C99.27 200.34 99.9829 197.001 101.409 194.079C102.834 191.156 104.831 188.863 107.397 187.199C109.963 185.512 112.981 184.668 116.451 184.668C119.944 184.668 122.986 185.512 125.576 187.199C128.166 188.863 130.162 191.156 131.564 194.079C132.99 197.001 133.703 200.34 133.703 204.095V205.271C133.703 209.002 132.99 212.329 131.564 215.251C130.162 218.174 128.166 220.479 125.576 222.167C123.009 223.83 119.991 224.662 116.522 224.662C113.029 224.662 109.987 223.83 107.397 222.167C104.831 220.479 102.834 218.174 101.409 215.251C99.9829 212.329 99.27 209.002 99.27 205.271V204.095ZM103.547 205.271C103.547 208.075 104.046 210.677 105.044 213.077C106.042 215.477 107.504 217.414 109.429 218.887C111.354 220.337 113.718 221.062 116.522 221.062C119.302 221.062 121.643 220.337 123.544 218.887C125.469 217.414 126.93 215.477 127.928 213.077C128.926 210.677 129.425 208.075 129.425 205.271V204.095C129.425 201.314 128.926 198.724 127.928 196.324C126.93 193.924 125.469 191.987 123.544 190.514C121.619 189.017 119.255 188.269 116.451 188.269C113.67 188.269 111.318 189.017 109.393 190.514C107.468 191.987 106.007 193.924 105.009 196.324C104.035 198.724 103.547 201.314 103.547 204.095V205.271ZM167.601 169.199H171.878V223.949H167.886L167.601 216.463V169.199ZM140.832 204.309C140.832 200.316 141.438 196.847 142.649 193.9C143.861 190.954 145.572 188.684 147.782 187.092C150.016 185.476 152.666 184.668 155.731 184.668C158.725 184.668 161.268 185.322 163.359 186.629C165.45 187.912 167.113 189.718 168.349 192.047C169.609 194.352 170.464 197.061 170.916 200.174V209.834C170.535 212.685 169.727 215.228 168.492 217.461C167.256 219.695 165.569 221.454 163.43 222.737C161.315 224.02 158.725 224.662 155.66 224.662C152.618 224.662 149.98 223.83 147.747 222.167C145.537 220.503 143.826 218.198 142.614 215.251C141.426 212.305 140.832 208.907 140.832 205.057V204.309ZM145.109 205.057C145.109 208.051 145.513 210.748 146.321 213.148C147.129 215.525 148.364 217.426 150.028 218.852C151.715 220.254 153.854 220.955 156.444 220.955C158.891 220.955 160.947 220.491 162.61 219.564C164.274 218.614 165.604 217.366 166.603 215.822C167.601 214.253 168.325 212.531 168.777 210.653V199.532C168.492 198.297 168.076 197.025 167.529 195.718C166.983 194.411 166.234 193.211 165.284 192.118C164.357 191.001 163.169 190.098 161.719 189.409C160.293 188.72 158.559 188.376 156.515 188.376C153.901 188.376 151.751 189.077 150.063 190.479C148.376 191.881 147.129 193.793 146.321 196.217C145.513 198.617 145.109 201.314 145.109 204.309V205.057ZM203.067 185.381H206.097L204.314 193.366L194.583 223.949H191.589L193.799 214.895L203.067 185.381ZM192.302 215.073L194.049 223.949H190.948L179.755 185.381H184.175L192.302 215.073ZM225.63 185.381H230.014L218.822 223.949H215.756L217.681 214.966L225.63 185.381ZM215.899 214.646L218.18 223.949H215.186L205.241 193.33L203.566 185.381H206.738L215.899 214.646ZM235.86 204.095C235.86 200.34 236.573 197.001 237.999 194.079C239.424 191.156 241.42 188.863 243.987 187.199C246.553 185.512 249.571 184.668 253.041 184.668C256.534 184.668 259.575 185.512 262.166 187.199C264.756 188.863 266.752 191.156 268.154 194.079C269.58 197.001 270.292 200.34 270.292 204.095V205.271C270.292 209.002 269.58 212.329 268.154 215.251C266.752 218.174 264.756 220.479 262.166 222.167C259.599 223.83 256.581 224.662 253.112 224.662C249.619 224.662 246.577 223.83 243.987 222.167C241.42 220.479 239.424 218.174 237.999 215.251C236.573 212.329 235.86 209.002 235.86 205.271V204.095ZM240.137 205.271C240.137 208.075 240.636 210.677 241.634 213.077C242.632 215.477 244.094 217.414 246.019 218.887C247.943 220.337 250.308 221.062 253.112 221.062C255.892 221.062 258.233 220.337 260.134 218.887C262.059 217.414 263.52 215.477 264.518 213.077C265.516 210.677 266.015 208.075 266.015 205.271V204.095C266.015 201.314 265.516 198.724 264.518 196.324C263.52 193.924 262.059 191.987 260.134 190.514C258.209 189.017 255.845 188.269 253.041 188.269C250.26 188.269 247.908 189.017 245.983 190.514C244.058 191.987 242.597 193.924 241.599 196.324C240.624 198.724 240.137 201.314 240.137 204.095V205.271ZM283.374 223.949H279.097V185.381H283.267L283.374 191.762V223.949ZM296.919 188.981C296.444 188.91 295.98 188.851 295.529 188.803C295.077 188.756 294.59 188.732 294.067 188.732C291.62 188.732 289.564 189.326 287.901 190.514C286.237 191.702 284.966 193.294 284.087 195.291C283.231 197.287 282.768 199.52 282.697 201.992L281.093 202.562C281.093 199.211 281.556 196.194 282.483 193.508C283.433 190.799 284.871 188.649 286.796 187.057C288.744 185.465 291.216 184.668 294.21 184.668C294.757 184.668 295.291 184.716 295.814 184.811C296.361 184.882 296.764 184.977 297.026 185.096L296.919 188.981ZM307.969 223.949H303.727V169.199H307.969V223.949ZM314.171 203.239L306.472 210.653L305.83 206.519L312.032 199.889L326.753 185.381H332.171L314.171 203.239ZM312.353 203.881L314.706 200.245L333.597 223.949H328.464L312.353 203.881ZM344.255 223.949H340.013V185.381H344.255V223.949ZM339.265 174.225C339.265 173.417 339.514 172.739 340.013 172.193C340.536 171.623 341.249 171.337 342.152 171.337C343.079 171.337 343.803 171.623 344.326 172.193C344.849 172.739 345.11 173.417 345.11 174.225C345.11 175.009 344.849 175.674 344.326 176.221C343.803 176.767 343.079 177.041 342.152 177.041C341.249 177.041 340.536 176.767 340.013 176.221C339.514 175.674 339.265 175.009 339.265 174.225ZM360.152 223.949H355.875V185.381H359.974L360.152 193.615V223.949ZM357.301 201.172C357.491 198.154 358.239 195.397 359.546 192.902C360.853 190.407 362.624 188.411 364.857 186.914C367.115 185.417 369.717 184.668 372.664 184.668C375.254 184.668 377.464 185.144 379.293 186.094C381.123 187.045 382.525 188.566 383.5 190.657C384.498 192.724 384.997 195.457 384.997 198.855V223.949H380.719V198.819C380.719 196.158 380.351 194.067 379.614 192.546C378.878 191.025 377.832 189.944 376.478 189.302C375.123 188.661 373.519 188.34 371.666 188.34C369.622 188.34 367.828 188.791 366.283 189.694C364.762 190.574 363.479 191.726 362.434 193.152C361.412 194.554 360.628 196.063 360.081 197.679C359.535 199.295 359.249 200.815 359.226 202.241L357.301 201.172ZM425.382 185.381V223.272C425.382 226.622 424.74 229.497 423.457 231.897C422.198 234.298 420.403 236.139 418.075 237.422C415.77 238.706 413.049 239.347 409.912 239.347C408.32 239.347 406.68 239.098 404.993 238.599C403.33 238.123 401.75 237.387 400.252 236.389C398.779 235.414 397.52 234.203 396.474 232.753L398.862 230.151C400.431 232.076 402.106 233.49 403.888 234.393C405.67 235.296 407.595 235.747 409.663 235.747C413.298 235.747 416.114 234.654 418.11 232.468C420.106 230.305 421.104 227.287 421.104 223.414V193.865L421.39 185.381H425.382ZM394.335 204.309C394.335 200.316 394.93 196.847 396.118 193.9C397.306 190.954 399.017 188.684 401.25 187.092C403.484 185.476 406.146 184.668 409.235 184.668C411.469 184.668 413.453 185.037 415.188 185.773C416.922 186.51 418.419 187.568 419.679 188.946C420.938 190.324 421.948 191.964 422.708 193.865C423.493 195.742 424.063 197.845 424.419 200.174V209.834C424.039 212.685 423.231 215.228 421.996 217.461C420.76 219.695 419.073 221.454 416.934 222.737C414.819 224.02 412.229 224.662 409.164 224.662C406.098 224.662 403.449 223.83 401.215 222.167C399.005 220.503 397.306 218.198 396.118 215.251C394.93 212.305 394.335 208.907 394.335 205.057V204.309ZM398.613 205.057C398.613 208.051 399.017 210.748 399.825 213.148C400.633 215.525 401.868 217.426 403.532 218.852C405.219 220.254 407.358 220.955 409.948 220.955C412.395 220.955 414.439 220.491 416.079 219.564C417.718 218.614 419.025 217.366 420 215.822C420.998 214.253 421.722 212.531 422.174 210.653V199.532C421.912 198.297 421.508 197.025 420.962 195.718C420.439 194.411 419.702 193.211 418.752 192.118C417.825 191.001 416.637 190.098 415.188 189.409C413.762 188.72 412.039 188.376 410.019 188.376C407.405 188.376 405.255 189.077 403.567 190.479C401.88 191.881 400.633 193.793 399.825 196.217C399.017 198.617 398.613 201.314 398.613 204.309V205.057ZM477.458 214.111C477.458 213.065 477.185 212.032 476.639 211.01C476.116 209.988 475.118 209.049 473.645 208.194C472.171 207.338 469.997 206.602 467.122 205.984C464.27 205.39 461.834 204.653 459.814 203.774C457.818 202.895 456.298 201.766 455.252 200.388C454.206 199.009 453.684 197.263 453.684 195.148C453.684 193.223 454.23 191.477 455.323 189.908C456.416 188.316 457.985 187.045 460.028 186.094C462.072 185.144 464.484 184.668 467.264 184.668C470.235 184.668 472.777 185.168 474.892 186.166C477.031 187.164 478.67 188.53 479.811 190.265C480.952 191.999 481.522 193.972 481.522 196.182H477.209C477.209 194.186 476.354 192.368 474.643 190.728C472.932 189.088 470.472 188.269 467.264 188.269C465.054 188.269 463.26 188.613 461.882 189.302C460.504 189.968 459.494 190.823 458.852 191.869C458.234 192.89 457.925 193.936 457.925 195.005C457.925 196.146 458.187 197.168 458.709 198.071C459.232 198.95 460.23 199.746 461.704 200.459C463.177 201.172 465.351 201.861 468.227 202.526C471.34 203.216 473.882 204.059 475.854 205.057C477.851 206.031 479.324 207.243 480.274 208.693C481.249 210.119 481.736 211.853 481.736 213.897C481.736 216.012 481.142 217.889 479.954 219.529C478.789 221.145 477.138 222.404 474.999 223.307C472.884 224.21 470.377 224.662 467.478 224.662C464.222 224.662 461.466 224.127 459.208 223.058C456.975 221.965 455.276 220.539 454.111 218.78C452.971 217.022 452.4 215.133 452.4 213.113H456.642C456.785 215.133 457.414 216.725 458.531 217.889C459.672 219.03 461.05 219.85 462.666 220.349C464.282 220.824 465.886 221.062 467.478 221.062C469.664 221.062 471.494 220.741 472.967 220.099C474.441 219.434 475.557 218.578 476.318 217.533C477.078 216.463 477.458 215.323 477.458 214.111ZM505.974 188.875H486.619V185.381H505.974V188.875ZM497.954 175.472V214.574C497.954 216.356 498.192 217.711 498.667 218.638C499.142 219.541 499.76 220.147 500.521 220.456C501.305 220.765 502.136 220.919 503.016 220.919C503.657 220.919 504.263 220.883 504.833 220.812C505.428 220.717 505.962 220.634 506.438 220.563L506.616 224.091C506.093 224.258 505.416 224.388 504.584 224.483C503.752 224.602 502.921 224.662 502.089 224.662C500.449 224.662 499 224.365 497.74 223.771C496.481 223.153 495.483 222.107 494.746 220.634C494.033 219.137 493.677 217.105 493.677 214.539V175.472H497.954ZM539.587 185.381H543.864V223.949H539.729L539.587 215.038V185.381ZM542.581 207.837C542.581 211.069 542.07 213.956 541.048 216.499C540.027 219.018 538.399 221.014 536.165 222.487C533.931 223.937 531.008 224.662 527.396 224.662C523.618 224.662 520.553 223.545 518.2 221.311C515.871 219.054 514.707 215.299 514.707 210.047V185.381H518.984V210.119C518.984 212.875 519.388 215.038 520.196 216.606C521.004 218.174 522.074 219.291 523.404 219.957C524.759 220.622 526.256 220.955 527.896 220.955C531.032 220.955 533.504 220.349 535.31 219.137C537.139 217.925 538.434 216.321 539.195 214.325C539.979 212.329 540.371 210.19 540.371 207.909L542.581 207.837ZM580.079 169.199H584.356V223.949H580.364L580.079 216.463V169.199ZM553.31 204.309C553.31 200.316 553.916 196.847 555.128 193.9C556.34 190.954 558.051 188.684 560.261 187.092C562.494 185.476 565.144 184.668 568.209 184.668C571.204 184.668 573.746 185.322 575.837 186.629C577.929 187.912 579.592 189.718 580.828 192.047C582.087 194.352 582.943 197.061 583.394 200.174V209.834C583.014 212.685 582.206 215.228 580.97 217.461C579.735 219.695 578.047 221.454 575.909 222.737C573.794 224.02 571.204 224.662 568.138 224.662C565.097 224.662 562.459 223.83 560.225 222.167C558.015 220.503 556.304 218.198 555.092 215.251C553.904 212.305 553.31 208.907 553.31 205.057V204.309ZM557.587 205.057C557.587 208.051 557.991 210.748 558.799 213.148C559.607 215.525 560.843 217.426 562.506 218.852C564.194 220.254 566.332 220.955 568.922 220.955C571.37 220.955 573.425 220.491 575.089 219.564C576.752 218.614 578.083 217.366 579.081 215.822C580.079 214.253 580.804 212.531 581.255 210.653V199.532C580.97 198.297 580.554 197.025 580.008 195.718C579.461 194.411 578.713 193.211 577.762 192.118C576.835 191.001 575.647 190.098 574.198 189.409C572.772 188.72 571.037 188.376 568.994 188.376C566.38 188.376 564.229 189.077 562.542 190.479C560.855 191.881 559.607 193.793 558.799 196.217C557.991 198.617 557.587 201.314 557.587 204.309V205.057ZM600.325 223.949H596.083V185.381H600.325V223.949ZM595.335 174.225C595.335 173.417 595.584 172.739 596.083 172.193C596.606 171.623 597.319 171.337 598.222 171.337C599.149 171.337 599.874 171.623 600.396 172.193C600.919 172.739 601.181 173.417 601.181 174.225C601.181 175.009 600.919 175.674 600.396 176.221C599.874 176.767 599.149 177.041 598.222 177.041C597.319 177.041 596.606 176.767 596.083 176.221C595.584 175.674 595.335 175.009 595.335 174.225ZM609.628 204.095C609.628 200.34 610.341 197.001 611.767 194.079C613.193 191.156 615.189 188.863 617.755 187.199C620.322 185.512 623.34 184.668 626.809 184.668C630.302 184.668 633.344 185.512 635.934 187.199C638.524 188.863 640.52 191.156 641.922 194.079C643.348 197.001 644.061 200.34 644.061 204.095V205.271C644.061 209.002 643.348 212.329 641.922 215.251C640.52 218.174 638.524 220.479 635.934 222.167C633.368 223.83 630.35 224.662 626.88 224.662C623.387 224.662 620.346 223.83 617.755 222.167C615.189 220.479 613.193 218.174 611.767 215.251C610.341 212.329 609.628 209.002 609.628 205.271V204.095ZM613.906 205.271C613.906 208.075 614.405 210.677 615.403 213.077C616.401 215.477 617.862 217.414 619.787 218.887C621.712 220.337 624.076 221.062 626.88 221.062C629.661 221.062 632.001 220.337 633.902 218.887C635.827 217.414 637.289 215.477 638.287 213.077C639.285 210.677 639.784 208.075 639.784 205.271V204.095C639.784 201.314 639.285 198.724 638.287 196.324C637.289 193.924 635.827 191.987 633.902 190.514C631.978 189.017 629.613 188.269 626.809 188.269C624.029 188.269 621.676 189.017 619.751 190.514C617.827 191.987 616.365 193.924 615.367 196.324C614.393 198.724 613.906 201.314 613.906 204.095V205.271Z" fill="#312323"/>
<path d="M243.485 6.17884C238.662 6.44677 235.111 6.98263 232.834 7.78644C230.69 8.59024 229.216 10.1309 228.412 12.4083C227.608 14.6857 227.207 18.3698 227.207 23.4605V123.132C227.207 128.222 227.608 131.907 228.412 134.184C229.216 136.461 230.69 138.002 232.834 138.806C235.111 139.61 238.662 140.145 243.485 140.413V144.432C237.322 144.03 228.814 143.83 217.962 143.83C206.44 143.83 197.865 144.03 192.238 144.432V140.413C197.061 140.145 200.545 139.61 202.688 138.806C204.966 138.002 206.507 136.461 207.311 134.184C208.114 131.907 208.516 128.222 208.516 123.132V15.4225L160.083 145.437H156.867L106.223 15.0206V121.122C106.223 126.347 106.625 130.232 107.429 132.777C108.366 135.323 110.108 137.198 112.654 138.404C115.199 139.476 119.152 140.145 124.511 140.413V144.432C119.688 144.03 112.855 143.83 104.012 143.83C95.9733 143.83 89.7432 144.03 85.3219 144.432V140.413C90.0112 140.145 93.4947 139.476 95.7723 138.404C98.05 137.198 99.5907 135.323 100.395 132.777C101.199 130.098 101.6 126.213 101.6 121.122V23.4605C101.6 18.3698 101.199 14.6857 100.395 12.4083C99.5907 10.1309 98.05 8.59024 95.7723 7.78644C93.6286 6.98263 90.1452 6.44677 85.3219 6.17884V2.15984C89.7432 2.56173 95.9733 2.76268 104.012 2.76268C110.979 2.76268 116.673 2.56173 121.095 2.15984L165.308 118.51L208.516 2.76268H217.962C228.814 2.76268 237.322 2.56173 243.485 2.15984V6.17884Z" fill="#312323"/>
<path d="M365.922 128.557C369.138 136.863 373.76 141.15 379.789 141.418V145.437C374.43 145.035 367.262 144.834 358.285 144.834C346.763 144.834 338.188 145.035 332.561 145.437V141.418C337.652 141.15 341.27 140.547 343.414 139.61C345.691 138.538 346.83 136.662 346.83 133.983C346.83 131.706 346.026 128.557 344.418 124.538L332.159 91.5826H283.525L275.285 112.883C272.605 120.117 271.265 125.61 271.265 129.361C271.265 133.514 272.672 136.528 275.486 138.404C278.433 140.279 282.855 141.284 288.75 141.418V145.437C281.113 145.035 273.409 144.834 265.638 144.834C259.609 144.834 254.585 145.035 250.566 145.437V141.418C257.265 139.811 262.557 133.983 266.442 123.935L313.67 2.15984H316.886L365.922 128.557ZM330.552 87.5636L308.043 27.4795L285.132 87.5636H330.552Z" fill="#312323"/>
<path d="M438.273 2.15984C461.988 2.15984 479.74 8.12135 491.53 20.0444C503.32 31.8334 509.216 49.0482 509.216 71.6885C509.216 86.2909 506.335 99.0847 500.574 110.07C494.813 121.055 486.439 129.562 475.453 135.591C464.6 141.485 451.604 144.432 436.465 144.432L424.808 144.231C417.305 143.963 411.812 143.83 408.329 143.83C397.342 143.83 389.036 144.03 383.409 144.432V140.413C388.232 140.145 391.715 139.61 393.859 138.806C396.137 138.002 397.677 136.461 398.481 134.184C399.285 131.907 399.687 128.222 399.687 123.132V23.4605C399.687 18.3698 399.285 14.6857 398.481 12.4083C397.677 10.1309 396.137 8.59024 393.859 7.78644C391.715 6.98263 388.232 6.44677 383.409 6.17884V2.15984C388.098 2.56173 394.596 2.76268 402.903 2.76268L419.985 2.56173C429.096 2.2938 435.192 2.15984 438.273 2.15984ZM433.249 5.77693C429.096 5.77693 425.947 6.24581 423.803 7.18358C421.794 8.12134 420.387 9.79593 419.583 12.2073C418.779 14.6187 418.377 18.2358 418.377 23.0586V123.534C418.377 128.356 418.779 131.973 419.583 134.385C420.387 136.796 421.794 138.471 423.803 139.409C425.947 140.346 429.163 140.815 433.45 140.815C447.652 140.815 458.839 138.27 467.012 133.179C475.185 127.954 480.879 120.385 484.094 110.472C487.444 100.558 489.119 87.8985 489.119 72.4923C489.119 57.0862 487.31 44.5603 483.692 34.9147C480.075 25.1351 474.18 17.8339 466.007 13.0111C457.968 8.18833 447.049 5.77693 433.249 5.77693Z" fill="#312323"/>
<path d="M829.816 144.054C826.441 150.232 824.058 153.888 819.198 157.668C816.117 159.678 813.798 161.988 806.118 161.988C797.2 161.988 791.73 158.874 788.958 154.428C786.33 150.775 784.949 144.38 783.207 136.342L778.786 105.448C777.178 98.4818 775.638 93.1232 774.164 89.3721C772.824 85.621 770.747 82.6068 767.934 80.3294C765.12 78.0519 761.168 76.9132 756.077 76.9132H736.984V123.132C736.984 128.222 737.386 131.907 738.19 134.184C738.994 136.461 740.468 138.002 742.612 138.806C744.889 139.61 748.44 140.145 753.263 140.413V144.432C747.1 144.03 738.592 143.83 727.74 143.83C716.218 143.83 707.643 144.03 702.016 144.432V140.413C706.839 140.145 710.322 139.61 712.466 138.806C714.744 138.002 716.285 136.461 717.088 134.184C717.892 131.907 718.294 128.222 718.294 123.132V23.4605C718.294 18.3698 717.892 14.6857 717.088 12.4083C716.285 10.1309 714.744 8.59024 712.466 7.78644C710.322 6.98263 706.839 6.44677 702.016 6.17884V2.15984C707.643 2.56173 715.816 2.76268 726.534 2.76268L748.239 2.56173C750.784 2.42777 753.665 2.36079 756.88 2.36079C772.422 2.36079 784.346 5.64297 792.653 12.2073C801.094 18.6377 805.314 27.0106 805.314 37.3261C805.314 42.5508 804.041 47.8425 801.496 53.2011C799.084 58.4258 794.931 63.1816 789.036 67.4686C783.274 71.6215 775.705 74.4348 766.326 75.9085L768.738 76.3104C777.58 77.784 784.011 80.4633 788.031 84.3483C792.05 88.2334 794.998 94.3958 796.873 102.836L801.898 134.132C803.237 140.294 804.644 147.821 806.118 150.232C807.592 152.644 810.682 153.849 813.227 153.849C815.505 153.849 817.725 153.474 819.198 152.268C821.358 150.649 824.599 146.869 826.441 144.054H829.816ZM751.856 6.17884C747.703 6.17884 744.554 6.64772 742.411 7.58548C740.401 8.52325 738.994 10.1978 738.19 12.6092C737.386 15.0206 736.984 18.6377 736.984 23.4605V72.8942H750.449C763.713 72.8942 772.824 69.9469 777.781 64.0524C782.739 58.1579 785.217 49.9859 785.217 39.5365C785.217 28.5513 782.605 20.2453 777.379 14.6187C772.154 8.99213 763.646 6.17884 751.856 6.17884Z" fill="#312323"/>
<path d="M934.015 128.557C937.23 136.863 941.853 141.15 947.882 141.418V145.437C942.523 145.035 935.355 144.834 926.378 144.834C914.856 144.834 906.281 145.035 900.654 145.437V141.418C905.745 141.15 909.363 140.547 911.506 139.61C913.784 138.538 914.923 136.662 914.923 133.983C914.923 131.706 914.119 128.557 912.511 124.538L900.252 91.5826H851.617L843.378 112.883C840.698 120.117 839.358 125.61 839.358 129.361C839.358 133.514 840.765 136.528 843.579 138.404C846.526 140.279 850.947 141.284 856.843 141.418V145.437C849.206 145.035 841.502 144.834 833.731 144.834C827.702 144.834 822.678 145.035 818.658 145.437V141.418C825.357 139.811 830.65 133.983 834.535 123.935L881.763 2.15984H884.978L934.015 128.557ZM898.644 87.5636L876.136 27.4795L853.225 87.5636H898.644Z" fill="#312323"/>
<path d="M1079.87 6.17884C1075.18 6.44677 1071.7 7.18358 1069.42 8.38928C1067.14 9.46101 1065.6 11.3365 1064.8 14.0159C1063.99 16.5612 1063.59 20.3793 1063.59 25.47V145.437H1058.97L974.562 15.0206V121.122C974.562 126.347 974.964 130.232 975.768 132.777C976.706 135.323 978.448 137.198 980.993 138.404C983.539 139.476 987.491 140.145 992.85 140.413V144.432C988.027 144.03 981.194 143.83 972.352 143.83C964.313 143.83 958.083 144.03 953.661 144.432V140.413C958.351 140.145 961.834 139.476 964.112 138.404C966.389 137.198 967.93 135.323 968.734 132.777C969.538 130.098 969.94 126.213 969.94 121.122V23.4605C969.94 18.3698 969.538 14.6857 968.734 12.4083C967.93 10.1309 966.389 8.59024 964.112 7.78644C961.968 6.98263 958.485 6.44677 953.661 6.17884V2.15984C958.083 2.56173 964.313 2.76268 972.352 2.76268C978.381 2.76268 983.606 2.56173 988.027 2.15984L1058.97 111.477V25.47C1058.97 20.2453 1058.5 16.3603 1057.56 13.8149C1056.76 11.2696 1055.08 9.46101 1052.54 8.38928C1049.99 7.18358 1046.04 6.44677 1040.68 6.17884V2.15984C1045.5 2.56173 1052.34 2.76268 1061.18 2.76268C1069.22 2.76268 1075.45 2.56173 1079.87 2.15984V6.17884Z" fill="#312323"/>
<path d="M647.775 69.2771C662.513 71.2866 673.03 75.5735 679.327 82.1379C685.624 88.5683 688.773 96.3384 688.773 105.448C688.773 113.084 686.83 119.85 682.945 125.744C679.059 131.639 673.499 136.26 666.264 139.61C659.029 142.825 650.455 144.432 640.54 144.432C636.923 144.432 633.841 144.365 631.295 144.231C622.721 143.963 614.28 143.83 605.973 143.83C594.987 143.83 586.68 144.03 581.053 144.432V140.413C585.876 140.145 589.36 139.61 591.503 138.806C593.781 138.002 595.322 136.461 596.126 134.184C596.93 131.907 597.332 128.222 597.332 123.132V23.4605C597.332 18.3698 596.93 14.6857 596.126 12.4083C595.322 10.1309 593.781 8.59024 591.503 7.78644C589.36 6.98263 585.876 6.44677 581.053 6.17884V2.15984C586.68 2.56173 594.853 2.76268 605.571 2.76268L627.276 2.56173C629.822 2.42777 632.702 2.36079 635.918 2.36079C649.584 2.36079 660.034 5.24107 667.269 11.0016C674.638 16.7622 678.322 24.3983 678.322 33.9099C678.322 41.68 675.844 48.6463 670.886 54.8087C666.063 60.9712 658.359 65.66 647.775 68.8752V69.2771ZM630.893 6.17884C626.74 6.17884 623.592 6.64772 621.448 7.58548C619.438 8.52325 618.031 10.1978 617.228 12.6092C616.424 15.0206 616.022 18.6377 616.022 23.4605V68.8752H629.487C640.473 68.8752 648.11 65.9279 652.397 60.0334C656.819 54.0049 659.029 46.0339 659.029 36.1204C659.029 26.0729 656.819 18.5707 652.397 13.614C647.976 8.65722 640.808 6.17884 630.893 6.17884ZM631.094 139.811C656.149 139.811 668.676 128.088 668.676 104.644C668.676 94.0609 665.795 86.0229 660.034 80.5303C654.407 75.0377 645.363 72.2913 632.903 72.2913H616.022V123.132C616.022 127.954 616.424 131.505 617.228 133.782C618.031 136.059 619.438 137.667 621.448 138.605C623.592 139.409 626.807 139.811 631.094 139.811Z" fill="#312323"/>
<path d="M1152.57 0C1160.61 0 1167.44 1.13872 1173.07 3.41615C1178.7 5.69359 1184.19 8.90879 1189.55 13.0618C1191.02 14.2675 1192.3 14.8703 1193.37 14.8703C1196.05 14.8703 1197.79 10.8513 1198.59 2.81331H1203.22C1202.68 11.5211 1202.41 26.9273 1202.41 49.0318H1197.79C1196.32 40.324 1194.98 34.0945 1193.77 30.3434C1192.57 26.4584 1190.56 22.7743 1187.74 19.2912C1183.72 14.0665 1178.56 10.1815 1172.27 7.63611C1166.1 4.95677 1159.41 3.6171 1152.17 3.6171C1143.46 3.6171 1135.83 6.49738 1129.26 12.2579C1122.83 18.0185 1117.8 26.2575 1114.19 36.9748C1110.57 47.5582 1108.76 60.0171 1108.76 74.3515C1108.76 88.9538 1110.7 101.48 1114.59 111.929C1118.47 122.379 1123.83 130.35 1130.67 135.842C1137.63 141.201 1145.47 143.88 1154.18 143.88C1160.88 143.88 1167.38 142.607 1173.67 140.062C1179.97 137.517 1184.93 133.699 1188.55 128.608C1191.23 124.857 1193.17 120.838 1194.37 116.551C1195.58 112.264 1196.72 105.7 1197.79 96.8579H1202.41C1202.41 119.9 1202.68 135.976 1203.22 145.086H1198.59C1198.19 140.799 1197.59 137.785 1196.79 136.043C1196.12 134.168 1195.11 133.23 1193.77 133.23C1192.7 133.23 1191.29 133.766 1189.55 134.837C1183.52 139.124 1177.76 142.407 1172.27 144.684C1166.77 146.827 1160.14 147.899 1152.37 147.899C1139.64 147.899 1128.46 145.019 1118.81 139.258C1109.3 133.498 1101.86 125.192 1096.5 114.341C1091.28 103.355 1088.66 90.2935 1088.66 75.1553C1088.66 60.4189 1091.34 47.3572 1096.7 35.97C1102.2 24.5829 1109.77 15.7411 1119.41 9.44465C1129.19 3.14821 1140.25 0 1152.57 0Z" fill="#312323"/>
<path d="M1360 6.17884C1355.18 6.44677 1351.63 6.98263 1349.35 7.78644C1347.2 8.59024 1345.73 10.1309 1344.93 12.4083C1344.12 14.6857 1343.72 18.3698 1343.72 23.4605V123.132C1343.72 128.222 1344.12 131.907 1344.93 134.184C1345.73 136.461 1347.2 138.002 1349.35 138.806C1351.63 139.61 1355.18 140.145 1360 140.413V144.432C1354.37 144.03 1345.8 143.83 1334.28 143.83C1323.42 143.83 1314.92 144.03 1308.75 144.432V140.413C1313.58 140.145 1317.06 139.61 1319.2 138.806C1321.48 138.002 1323.02 136.461 1323.83 134.184C1324.63 131.907 1325.03 128.222 1325.03 123.132V74.9037H1259.72V123.132C1259.72 128.222 1260.12 131.907 1260.92 134.184C1261.73 136.461 1263.2 138.002 1265.34 138.806C1267.62 139.61 1271.17 140.145 1275.99 140.413V144.432C1269.83 144.03 1261.32 143.83 1250.47 143.83C1238.95 143.83 1230.37 144.03 1224.75 144.432V140.413C1229.57 140.145 1233.05 139.61 1235.2 138.806C1237.48 138.002 1239.02 136.461 1239.82 134.184C1240.62 131.907 1241.03 128.222 1241.03 123.132V23.4605C1241.03 18.3698 1240.62 14.6857 1239.82 12.4083C1239.02 10.1309 1237.48 8.59024 1235.2 7.78644C1233.05 6.98263 1229.57 6.44677 1224.75 6.17884V2.15984C1230.37 2.56173 1238.95 2.76268 1250.47 2.76268C1261.19 2.76268 1269.7 2.56173 1275.99 2.15984V6.17884C1271.17 6.44677 1267.62 6.98263 1265.34 7.78644C1263.2 8.59024 1261.73 10.1309 1260.92 12.4083C1260.12 14.6857 1259.72 18.3698 1259.72 23.4605V70.8847H1325.03V23.4605C1325.03 18.3698 1324.63 14.6857 1323.83 12.4083C1323.02 10.1309 1321.48 8.59024 1319.2 7.78644C1317.06 6.98263 1313.58 6.44677 1308.75 6.17884V2.15984C1314.92 2.56173 1323.42 2.76268 1334.28 2.76268C1345.8 2.76268 1354.37 2.56173 1360 2.15984V6.17884Z" fill="#312323"/>
</svg>
