<svg width="338" height="338" viewBox="0 0 338 338" fill="none" xmlns="http://www.w3.org/2000/svg">
<path d="M187.259 136.722C182.793 136.97 179.506 137.466 177.397 138.21C175.412 138.955 174.048 140.381 173.303 142.49C172.559 144.599 172.187 148.01 172.187 152.724V245.019C172.187 249.733 172.559 253.145 173.303 255.254C174.048 257.363 175.412 258.789 177.397 259.534C179.506 260.278 182.793 260.774 187.259 261.022V264.744C181.553 264.372 173.676 264.186 163.627 264.186C152.959 264.186 145.019 264.372 139.809 264.744V261.022C144.275 260.774 147.501 260.278 149.485 259.534C151.594 258.789 153.021 257.363 153.765 255.254C154.509 253.145 154.882 249.733 154.882 245.019V145.281L110.037 265.674H107.059L60.1675 144.909V243.159C60.1675 247.997 60.5397 251.594 61.284 253.951C62.1524 256.308 63.765 258.045 66.122 259.161C68.479 260.154 72.1386 260.774 77.1007 261.022V264.744C72.6348 264.372 66.3081 264.186 58.1206 264.186C50.6775 264.186 44.909 264.372 40.8153 264.744V261.022C45.1571 260.774 48.3825 260.154 50.4914 259.161C52.6003 258.045 54.0269 256.308 54.7712 253.951C55.5155 251.47 55.8877 247.873 55.8877 243.159V152.724C55.8877 148.01 55.5155 144.599 54.7712 142.49C54.0269 140.381 52.6003 138.955 50.4914 138.21C48.5066 137.466 45.2812 136.97 40.8153 136.722V133C44.909 133.372 50.6775 133.558 58.1206 133.558C64.5714 133.558 69.8436 133.372 73.9373 133L114.875 240.74L154.882 133.558H163.627C173.676 133.558 181.553 133.372 187.259 133V136.722Z" fill="black"/>
<path d="M257.593 195.15C271.239 197.011 280.977 200.981 286.808 207.059C292.638 213.014 295.554 220.209 295.554 228.645C295.554 235.716 293.755 241.98 290.157 247.439C286.56 252.897 281.412 257.177 274.713 260.278C268.014 263.255 260.075 264.744 250.895 264.744C247.545 264.744 244.692 264.682 242.335 264.558C234.396 264.31 226.58 264.186 218.889 264.186C208.717 264.186 201.026 264.372 195.815 264.744V261.022C200.281 260.774 203.507 260.278 205.491 259.534C207.6 258.789 209.027 257.363 209.771 255.254C210.516 253.145 210.888 249.733 210.888 245.019V152.724C210.888 148.01 210.516 144.599 209.771 142.49C209.027 140.381 207.6 138.955 205.491 138.21C203.507 137.466 200.281 136.97 195.815 136.722V133C201.026 133.372 208.593 133.558 218.517 133.558L238.613 133.372C240.97 133.248 243.638 133.186 246.615 133.186C259.268 133.186 268.944 135.853 275.643 141.187C282.466 146.522 285.877 153.593 285.877 162.4C285.877 169.596 283.583 176.046 278.993 181.753C274.527 187.459 267.394 191.801 257.593 194.778V195.15ZM241.963 136.722C238.117 136.722 235.202 137.156 233.217 138.024C231.356 138.892 230.054 140.443 229.31 142.676C228.565 144.909 228.193 148.258 228.193 152.724V194.778H240.66C250.833 194.778 257.904 192.049 261.873 186.591C265.967 181.008 268.014 173.627 268.014 164.447C268.014 155.143 265.967 148.196 261.873 143.606C257.78 139.017 251.143 136.722 241.963 136.722ZM242.149 260.464C265.347 260.464 276.946 249.609 276.946 227.9C276.946 218.1 274.279 210.657 268.944 205.571C263.734 200.485 255.361 197.942 243.824 197.942H228.193V245.019C228.193 249.485 228.565 252.773 229.31 254.882C230.054 256.991 231.356 258.479 233.217 259.348C235.202 260.092 238.179 260.464 242.149 260.464Z" fill="black"/>
<rect x="3.5" y="3.5" width="331" height="331" rx="27.5" stroke="black" stroke-width="7"/>
</svg>
