<svg width="76" height="76" viewBox="0 0 76 76" fill="none" xmlns="http://www.w3.org/2000/svg">
<path d="M41.8965 31.2489L42.0146 31.2424V31.1241V30.3314V30.1979L41.8814 30.2066C40.6699 30.2856 38.995 30.3253 36.8555 30.3253H34.9926H34.9058L34.8754 30.4066L26.4693 52.9272L17.8668 30.287L17.8331 30.1983L17.7387 30.2069C16.8719 30.2857 15.7529 30.3253 14.3807 30.3253C12.7965 30.3253 11.5721 30.2856 10.7057 30.2069L10.5694 30.1945V30.3314V31.1241V31.2424L10.6875 31.2489C11.6369 31.3017 12.3078 31.4068 12.7117 31.5583L12.7117 31.5583L12.714 31.5591C13.1276 31.7051 13.4034 31.9809 13.5494 32.3945C13.7004 32.8224 13.7801 33.5309 13.7801 34.533V53.7971C13.7801 54.7968 13.7009 55.5484 13.5478 56.0593C13.399 56.5299 13.1171 56.8724 12.6997 57.0941C12.2724 57.2944 11.6057 57.4251 10.6873 57.4776L10.5694 57.4843V57.6024V58.3951V58.532L10.7057 58.5196C11.5721 58.4409 12.7965 58.4012 14.3807 58.4012C16.1237 58.4012 17.4673 58.4409 18.4134 58.5197L18.5488 58.531V58.3951V57.6024V57.4835L18.4301 57.4775C17.3784 57.4249 16.6176 57.2939 16.1362 57.0918C15.6647 56.8678 15.346 56.5235 15.1729 56.0557C15.0209 55.5724 14.9418 54.8227 14.9418 53.7971V33.5355L24.689 58.6386L24.72 58.7183H24.8056H25.4398H25.5266L25.5569 58.637L34.8676 33.6412V54.1935C34.8676 55.1956 34.7879 55.9041 34.6369 56.332C34.4909 56.7456 34.215 57.0214 33.8014 57.1674L33.8014 57.1674L33.7992 57.1682C33.3953 57.3197 32.7244 57.4248 31.7749 57.4776L31.6569 57.4841V57.6024V58.3951V58.5294L31.7908 58.5198C32.896 58.4409 34.5835 58.4012 36.8555 58.4012C38.995 58.4012 40.6699 58.4409 41.8814 58.5199L42.0146 58.5286V58.3951V57.6024V57.4841L41.8965 57.4776C40.9485 57.4249 40.2633 57.32 39.8315 57.1678C39.446 57.0229 39.1815 56.7482 39.0346 56.332C38.8836 55.9041 38.8039 55.1956 38.8039 54.1935V34.533C38.8039 33.5309 38.8836 32.8224 39.0346 32.3945C39.1815 31.9783 39.4461 31.7036 39.8315 31.5587C40.2634 31.4065 40.9486 31.3016 41.8965 31.2489Z" fill="#312323" stroke="#312323" stroke-width="0.25"/>
<path d="M63.1849 46.0203C61.9686 44.7526 59.9853 43.9181 57.2582 43.5001C59.1826 42.8658 60.6106 41.9665 61.5283 40.7942C62.5232 39.5571 63.022 38.1556 63.022 36.5942C63.022 34.6805 62.2783 33.1377 60.7943 31.9773C59.3369 30.8169 57.2438 30.246 54.5334 30.246C53.8986 30.246 53.3291 30.2592 52.8251 30.2857L48.548 30.3253C48.5478 30.3253 48.5476 30.3253 48.5474 30.3253C46.4345 30.3253 44.8263 30.2856 43.7211 30.2067L43.5872 30.1971V30.3314V31.1241V31.2424L43.7052 31.2489C44.6547 31.3017 45.3256 31.4068 45.7294 31.5583L45.7294 31.5583L45.7317 31.5591C46.1453 31.7051 46.4212 31.9809 46.5671 32.3945C46.7182 32.8224 46.7978 33.5309 46.7978 34.533V54.1935C46.7978 55.1956 46.7182 55.9041 46.5671 56.332C46.4212 56.7456 46.1453 57.0214 45.7317 57.1674L45.7317 57.1674L45.7294 57.1682C45.3256 57.3197 44.6547 57.4248 43.7052 57.4776L43.5872 57.4841V57.6024V58.3951V58.5294L43.7211 58.5198C44.8264 58.4409 46.4612 58.4012 48.6273 58.4012C50.2639 58.4012 51.9269 58.4276 53.6164 58.4804C54.1211 58.5069 54.7308 58.5201 55.445 58.5201C57.4137 58.5201 59.123 58.2009 60.5695 57.558L60.5695 57.5581L60.5712 57.5573C62.0165 56.8881 63.1323 55.9621 63.913 54.7776C64.6939 53.5928 65.0832 52.234 65.0832 50.7053C65.0832 48.8764 64.4498 47.3123 63.1849 46.0203ZM57.6829 41.6732L57.6826 41.6736C56.8706 42.79 55.4129 43.3662 53.2649 43.3662H50.7342V34.533C50.7342 33.5853 50.8136 32.8882 50.9656 32.4321C51.1148 31.9843 51.371 31.6839 51.7309 31.5155C52.1301 31.3413 52.7301 31.2491 53.5424 31.2491C55.48 31.2491 56.8517 31.7336 57.6904 32.6739C58.5337 33.6195 58.9667 35.0637 58.9667 37.0302C58.9667 38.9677 58.5348 40.5115 57.6829 41.6732ZM59.2026 45.8797L59.2037 45.8807C60.3078 46.9335 60.8694 48.4816 60.8694 50.5468C60.8694 52.8375 60.2578 54.5332 59.0559 55.658C57.8524 56.7843 56.0355 57.3585 53.582 57.3585C52.7439 57.3585 52.1294 57.2797 51.7279 57.1303C51.3671 56.9606 51.1128 56.6717 50.9649 56.2527C50.8137 55.8244 50.7342 55.1419 50.7342 54.1935V44.2901H53.9388C56.3821 44.2901 58.1266 44.8292 59.2026 45.8797Z" fill="#312323" stroke="#312323" stroke-width="0.25"/>
<path d="M8.60355 3.5H67.3965V0.5H8.60355V3.5ZM72.5 8.60355V67.3965H75.5V8.60355H72.5ZM67.3965 72.5H8.60355V75.5H67.3965V72.5ZM3.5 67.3965V8.60355H0.5V67.3965H3.5ZM8.60355 72.5C5.78494 72.5 3.5 70.2151 3.5 67.3965H0.5C0.5 71.8719 4.12808 75.5 8.60355 75.5V72.5ZM72.5 67.3965C72.5 70.2151 70.2151 72.5 67.3965 72.5V75.5C71.8719 75.5 75.5 71.8719 75.5 67.3965H72.5ZM67.3965 3.5C70.2151 3.5 72.5 5.78494 72.5 8.60355H75.5C75.5 4.12808 71.8719 0.5 67.3965 0.5V3.5ZM8.60355 0.5C4.12808 0.5 0.5 4.12808 0.5 8.60355H3.5C3.5 5.78494 5.78494 3.5 8.60355 3.5V0.5Z" fill="#312323"/>
</svg>
