<svg width="76" height="76" viewBox="0 0 76 76" fill="none" xmlns="http://www.w3.org/2000/svg">
<path d="M41.8965 31.249L42.0145 31.2424V31.1242V30.3314V30.198L41.8814 30.2067C40.6698 30.2857 38.9949 30.3253 36.8555 30.3253H34.9925H34.9057L34.8754 30.4066L26.4693 52.9272L17.8668 30.287L17.8331 30.1983L17.7386 30.2069C16.8718 30.2857 15.7529 30.3253 14.3807 30.3253C12.7964 30.3253 11.5721 30.2857 10.7057 30.2069L10.5693 30.1945V30.3314V31.1242V31.2424L10.6874 31.249C11.6369 31.3017 12.3077 31.4068 12.7116 31.5583L12.7116 31.5583L12.7139 31.5591C13.1275 31.7051 13.4033 31.981 13.5493 32.3945C13.7003 32.8224 13.78 33.5309 13.78 34.533V53.7971C13.78 54.7968 13.7009 55.5484 13.5477 56.0593C13.3989 56.53 13.117 56.8724 12.6996 57.0942C12.2724 57.2945 11.6056 57.4251 10.6872 57.4776L10.5693 57.4843V57.6024V58.3952V58.532L10.7057 58.5197C11.5721 58.4409 12.7964 58.4012 14.3807 58.4012C16.1236 58.4012 17.4673 58.4409 18.4134 58.5197L18.5488 58.531V58.3952V57.6024V57.4835L18.43 57.4776C17.3783 57.425 16.6176 57.2939 16.1361 57.0919C15.6647 56.8679 15.346 56.5236 15.1728 56.0557C15.0208 55.5724 14.9417 54.8227 14.9417 53.7971V33.5355L24.689 58.6386L24.7199 58.7184H24.8055H25.4397H25.5265L25.5568 58.637L34.8675 33.6412V54.1935C34.8675 55.1957 34.7878 55.9041 34.6368 56.332C34.4908 56.7456 34.215 57.0215 33.8014 57.1674L33.8014 57.1674L33.7991 57.1683C33.3952 57.3197 32.7243 57.4248 31.7749 57.4776L31.6568 57.4842V57.6024V58.3952V58.5294L31.7907 58.5198C32.8959 58.4409 34.5835 58.4012 36.8555 58.4012C38.9949 58.4012 40.6698 58.4409 41.8814 58.5199L42.0145 58.5286V58.3952V57.6024V57.4842L41.8965 57.4776C40.9485 57.4249 40.2633 57.32 39.8314 57.1678C39.446 57.0229 39.1814 56.7482 39.0345 56.332C38.8835 55.9041 38.8038 55.1957 38.8038 54.1935V34.533C38.8038 33.5309 38.8835 32.8224 39.0345 32.3945C39.1814 31.9784 39.446 31.7036 39.8315 31.5587C40.2633 31.4066 40.9485 31.3016 41.8965 31.249Z" fill="white" stroke="white" stroke-width="0.25"/>
<path d="M63.1848 46.0204C61.9685 44.7526 59.9852 43.9181 57.2581 43.5001C59.1825 42.8659 60.6105 41.9666 61.5282 40.7943C62.5231 39.5571 63.0219 38.1557 63.0219 36.5942C63.0219 34.6805 62.2782 33.1377 60.7942 31.9773C59.3367 30.817 57.2436 30.246 54.5332 30.246C53.8985 30.246 53.329 30.2592 52.8249 30.2857L48.5479 30.3253C48.5477 30.3253 48.5475 30.3253 48.5473 30.3253C46.4344 30.3253 44.8262 30.2857 43.7209 30.2067L43.587 30.1971V30.3314V31.1242V31.2424L43.7051 31.249C44.6546 31.3017 45.3254 31.4068 45.7293 31.5583L45.7293 31.5583L45.7316 31.5591C46.1452 31.7051 46.421 31.981 46.567 32.3945C46.718 32.8224 46.7977 33.5309 46.7977 34.533V54.1935C46.7977 55.1957 46.718 55.9041 46.567 56.332C46.421 56.7456 46.1452 57.0215 45.7316 57.1674L45.7316 57.1674L45.7293 57.1683C45.3254 57.3197 44.6546 57.4248 43.7051 57.4776L43.587 57.4842V57.6024V58.3952V58.5294L43.7209 58.5198C44.8262 58.4409 46.461 58.4012 48.6272 58.4012C50.2637 58.4012 51.9268 58.4276 53.6163 58.4804C54.121 58.507 54.7307 58.5202 55.4449 58.5202C57.4136 58.5202 59.1229 58.2009 60.5694 57.5581L60.5694 57.5581L60.5711 57.5573C62.0164 56.8882 63.1322 55.9622 63.9129 54.7776C64.6938 53.5928 65.0831 52.234 65.0831 50.7054C65.0831 48.8764 64.4497 47.3124 63.1848 46.0204ZM57.6828 41.6732L57.6825 41.6736C56.8705 42.7901 55.4128 43.3662 53.2648 43.3662H50.7341V34.533C50.7341 33.5854 50.8134 32.8882 50.9655 32.4321C51.1147 31.9844 51.3709 31.6839 51.7308 31.5155C52.13 31.3413 52.73 31.2492 53.5423 31.2492C55.4798 31.2492 56.8516 31.7337 57.6903 32.674C58.5336 33.6195 58.9666 35.0638 58.9666 37.0302C58.9666 38.9677 58.5347 40.5116 57.6828 41.6732ZM59.2025 45.8797L59.2035 45.8807C60.3077 46.9335 60.8692 48.4817 60.8692 50.5468C60.8692 52.8376 60.2577 54.5333 59.0558 55.6581C57.8523 56.7843 56.0354 57.3585 53.5819 57.3585C52.7438 57.3585 52.1292 57.2797 51.7278 57.1303C51.367 56.9606 51.1127 56.6717 50.9648 56.2527C50.8136 55.8244 50.7341 55.1419 50.7341 54.1935V44.2901H53.9387C56.382 44.2901 58.1264 44.8293 59.2025 45.8797Z" fill="white" stroke="white" stroke-width="0.25"/>
<path d="M8.60355 3.5H67.3965V0.5H8.60355V3.5ZM72.5 8.60355V67.3965H75.5V8.60355H72.5ZM67.3965 72.5H8.60355V75.5H67.3965V72.5ZM3.5 67.3965V8.60355H0.5V67.3965H3.5ZM8.60355 72.5C5.78494 72.5 3.5 70.2151 3.5 67.3965H0.5C0.5 71.8719 4.12808 75.5 8.60355 75.5V72.5ZM72.5 67.3965C72.5 70.2151 70.2151 72.5 67.3965 72.5V75.5C71.8719 75.5 75.5 71.8719 75.5 67.3965H72.5ZM67.3965 3.5C70.2151 3.5 72.5 5.78494 72.5 8.60355H75.5C75.5 4.12808 71.8719 0.5 67.3965 0.5V3.5ZM8.60355 0.5C4.12808 0.5 0.5 4.12808 0.5 8.60355H3.5C3.5 5.78494 5.78494 3.5 8.60355 3.5V0.5Z" fill="white"/>
</svg>
