<svg width="1500" height="464" viewBox="0 0 1500 464" fill="none" xmlns="http://www.w3.org/2000/svg">
<rect width="1499.23" height="464" fill="black"/>
<path d="M145.557 294.433H148.587L146.805 302.417L137.074 333H134.08L136.29 323.946L145.557 294.433ZM134.792 324.125L136.539 333H133.438L122.246 294.433H126.666L134.792 324.125ZM168.12 294.433H172.504L161.312 333H158.247L160.171 324.018L168.12 294.433ZM158.389 323.697L160.67 333H157.676L147.731 302.381L146.056 294.433H149.229L158.389 323.697ZM178.35 313.146C178.35 309.391 179.063 306.053 180.489 303.13C181.915 300.207 183.911 297.914 186.477 296.25C189.043 294.563 192.061 293.72 195.531 293.72C199.024 293.72 202.066 294.563 204.656 296.25C207.246 297.914 209.242 300.207 210.644 303.13C212.07 306.053 212.783 309.391 212.783 313.146V314.322C212.783 318.053 212.07 321.38 210.644 324.303C209.242 327.226 207.246 329.531 204.656 331.218C202.089 332.881 199.071 333.713 195.602 333.713C192.109 333.713 189.067 332.881 186.477 331.218C183.911 329.531 181.915 327.226 180.489 324.303C179.063 321.38 178.35 318.053 178.35 314.322V313.146ZM182.627 314.322C182.627 317.126 183.126 319.728 184.125 322.128C185.123 324.528 186.584 326.465 188.509 327.938C190.434 329.388 192.798 330.113 195.602 330.113C198.382 330.113 200.723 329.388 202.624 327.938C204.549 326.465 206.01 324.528 207.008 322.128C208.006 319.728 208.505 317.126 208.505 314.322V313.146C208.505 310.366 208.006 307.776 207.008 305.375C206.01 302.975 204.549 301.039 202.624 299.565C200.699 298.068 198.335 297.32 195.531 297.32C192.75 297.32 190.398 298.068 188.473 299.565C186.548 301.039 185.087 302.975 184.089 305.375C183.115 307.776 182.627 310.366 182.627 313.146V314.322ZM219.27 313.146C219.27 309.391 219.983 306.053 221.409 303.13C222.834 300.207 224.831 297.914 227.397 296.25C229.963 294.563 232.981 293.72 236.451 293.72C239.944 293.72 242.986 294.563 245.576 296.25C248.166 297.914 250.162 300.207 251.564 303.13C252.99 306.053 253.703 309.391 253.703 313.146V314.322C253.703 318.053 252.99 321.38 251.564 324.303C250.162 327.226 248.166 329.531 245.576 331.218C243.009 332.881 239.991 333.713 236.522 333.713C233.029 333.713 229.987 332.881 227.397 331.218C224.831 329.531 222.834 327.226 221.409 324.303C219.983 321.38 219.27 318.053 219.27 314.322V313.146ZM223.547 314.322C223.547 317.126 224.046 319.728 225.044 322.128C226.042 324.528 227.504 326.465 229.429 327.938C231.354 329.388 233.718 330.113 236.522 330.113C239.302 330.113 241.643 329.388 243.544 327.938C245.469 326.465 246.93 324.528 247.928 322.128C248.926 319.728 249.425 317.126 249.425 314.322V313.146C249.425 310.366 248.926 307.776 247.928 305.375C246.93 302.975 245.469 301.039 243.544 299.565C241.619 298.068 239.255 297.32 236.451 297.32C233.67 297.32 231.318 298.068 229.393 299.565C227.468 301.039 226.007 302.975 225.009 305.375C224.035 307.776 223.547 310.366 223.547 313.146V314.322ZM287.601 278.25H291.878V333H287.886L287.601 325.515V278.25ZM260.832 313.36C260.832 309.368 261.438 305.898 262.649 302.952C263.861 300.005 265.572 297.736 267.782 296.144C270.016 294.528 272.666 293.72 275.731 293.72C278.725 293.72 281.268 294.373 283.359 295.68C285.45 296.963 287.113 298.769 288.349 301.098C289.609 303.403 290.464 306.112 290.916 309.225V318.885C290.535 321.736 289.727 324.279 288.492 326.513C287.256 328.746 285.569 330.505 283.43 331.788C281.315 333.071 278.725 333.713 275.66 333.713C272.618 333.713 269.98 332.881 267.747 331.218C265.537 329.554 263.826 327.249 262.614 324.303C261.426 321.356 260.832 317.958 260.832 314.108V313.36ZM265.109 314.108C265.109 317.103 265.513 319.8 266.321 322.2C267.129 324.576 268.364 326.477 270.028 327.903C271.715 329.305 273.854 330.006 276.444 330.006C278.891 330.006 280.947 329.542 282.61 328.616C284.274 327.665 285.604 326.418 286.603 324.873C287.601 323.305 288.325 321.582 288.777 319.705V308.583C288.492 307.348 288.076 306.076 287.529 304.77C286.983 303.463 286.234 302.263 285.284 301.169C284.357 300.053 283.169 299.15 281.719 298.46C280.293 297.771 278.559 297.427 276.515 297.427C273.901 297.427 271.751 298.128 270.063 299.53C268.376 300.932 267.129 302.845 266.321 305.269C265.513 307.669 265.109 310.366 265.109 313.36V314.108ZM323.067 294.433H326.097L324.314 302.417L314.583 333H311.589L313.799 323.946L323.067 294.433ZM312.302 324.125L314.049 333H310.948L299.755 294.433H304.175L312.302 324.125ZM345.63 294.433H350.014L338.822 333H335.756L337.681 324.018L345.63 294.433ZM335.899 323.697L338.18 333H335.186L325.241 302.381L323.566 294.433H326.738L335.899 323.697ZM355.86 313.146C355.86 309.391 356.573 306.053 357.999 303.13C359.424 300.207 361.42 297.914 363.987 296.25C366.553 294.563 369.571 293.72 373.041 293.72C376.534 293.72 379.575 294.563 382.166 296.25C384.756 297.914 386.752 300.207 388.154 303.13C389.58 306.053 390.292 309.391 390.292 313.146V314.322C390.292 318.053 389.58 321.38 388.154 324.303C386.752 327.226 384.756 329.531 382.166 331.218C379.599 332.881 376.581 333.713 373.112 333.713C369.619 333.713 366.577 332.881 363.987 331.218C361.42 329.531 359.424 327.226 357.999 324.303C356.573 321.38 355.86 318.053 355.86 314.322V313.146ZM360.137 314.322C360.137 317.126 360.636 319.728 361.634 322.128C362.632 324.528 364.094 326.465 366.019 327.938C367.943 329.388 370.308 330.113 373.112 330.113C375.892 330.113 378.233 329.388 380.134 327.938C382.059 326.465 383.52 324.528 384.518 322.128C385.516 319.728 386.015 317.126 386.015 314.322V313.146C386.015 310.366 385.516 307.776 384.518 305.375C383.52 302.975 382.059 301.039 380.134 299.565C378.209 298.068 375.845 297.32 373.041 297.32C370.26 297.32 367.908 298.068 365.983 299.565C364.058 301.039 362.597 302.975 361.599 305.375C360.624 307.776 360.137 310.366 360.137 313.146V314.322ZM403.374 333H399.097V294.433H403.267L403.374 300.813V333ZM416.919 298.033C416.444 297.961 415.98 297.902 415.529 297.854C415.077 297.807 414.59 297.783 414.067 297.783C411.62 297.783 409.564 298.377 407.901 299.565C406.237 300.754 404.966 302.346 404.087 304.342C403.231 306.338 402.768 308.572 402.697 311.043L401.093 311.613C401.093 308.263 401.556 305.245 402.483 302.56C403.433 299.851 404.871 297.7 406.796 296.108C408.744 294.516 411.216 293.72 414.21 293.72C414.757 293.72 415.291 293.767 415.814 293.862C416.361 293.934 416.764 294.029 417.026 294.147L416.919 298.033ZM427.969 333H423.727V278.25H427.969V333ZM434.171 312.291L426.472 319.705L425.83 315.57L432.032 308.94L446.753 294.433H452.171L434.171 312.291ZM432.353 312.932L434.706 309.296L453.597 333H448.464L432.353 312.932ZM464.255 333H460.013V294.433H464.255V333ZM459.265 283.276C459.265 282.468 459.514 281.791 460.013 281.244C460.536 280.674 461.249 280.389 462.152 280.389C463.079 280.389 463.803 280.674 464.326 281.244C464.849 281.791 465.11 282.468 465.11 283.276C465.11 284.06 464.849 284.725 464.326 285.272C463.803 285.819 463.079 286.092 462.152 286.092C461.249 286.092 460.536 285.819 460.013 285.272C459.514 284.725 459.265 284.06 459.265 283.276ZM480.152 333H475.875V294.433H479.974L480.152 302.667V333ZM477.301 310.223C477.491 307.205 478.239 304.449 479.546 301.954C480.853 299.458 482.624 297.462 484.857 295.965C487.115 294.468 489.717 293.72 492.664 293.72C495.254 293.72 497.464 294.195 499.293 295.146C501.123 296.096 502.525 297.617 503.5 299.708C504.498 301.775 504.997 304.508 504.997 307.906V333H500.719V307.871C500.719 305.209 500.351 303.118 499.614 301.597C498.878 300.076 497.832 298.995 496.478 298.354C495.123 297.712 493.519 297.391 491.666 297.391C489.622 297.391 487.828 297.843 486.283 298.746C484.762 299.625 483.479 300.777 482.434 302.203C481.412 303.605 480.628 305.114 480.081 306.73C479.535 308.346 479.249 309.867 479.226 311.292L477.301 310.223ZM545.382 294.433V332.323C545.382 335.673 544.74 338.549 543.457 340.949C542.198 343.349 540.403 345.19 538.075 346.474C535.77 347.757 533.049 348.398 529.912 348.398C528.32 348.398 526.68 348.149 524.993 347.65C523.33 347.175 521.75 346.438 520.252 345.44C518.779 344.466 517.52 343.254 516.474 341.804L518.862 339.202C520.431 341.127 522.106 342.541 523.888 343.444C525.67 344.347 527.595 344.798 529.663 344.798C533.298 344.798 536.114 343.705 538.11 341.519C540.106 339.357 541.104 336.339 541.104 332.465V302.916L541.39 294.433H545.382ZM514.335 313.36C514.335 309.368 514.93 305.898 516.118 302.952C517.306 300.005 519.017 297.736 521.25 296.144C523.484 294.528 526.146 293.72 529.235 293.72C531.469 293.72 533.453 294.088 535.188 294.825C536.922 295.561 538.419 296.619 539.679 297.997C540.938 299.375 541.948 301.015 542.708 302.916C543.493 304.793 544.063 306.896 544.419 309.225V318.885C544.039 321.736 543.231 324.279 541.996 326.513C540.76 328.746 539.073 330.505 536.934 331.788C534.819 333.071 532.229 333.713 529.164 333.713C526.098 333.713 523.449 332.881 521.215 331.218C519.005 329.554 517.306 327.249 516.118 324.303C514.93 321.356 514.335 317.958 514.335 314.108V313.36ZM518.613 314.108C518.613 317.103 519.017 319.8 519.825 322.2C520.633 324.576 521.868 326.477 523.532 327.903C525.219 329.305 527.358 330.006 529.948 330.006C532.395 330.006 534.439 329.542 536.079 328.616C537.718 327.665 539.025 326.418 540 324.873C540.998 323.305 541.722 321.582 542.174 319.705V308.583C541.912 307.348 541.508 306.076 540.962 304.77C540.439 303.463 539.702 302.263 538.752 301.169C537.825 300.053 536.637 299.15 535.188 298.46C533.762 297.771 532.039 297.427 530.019 297.427C527.405 297.427 525.255 298.128 523.567 299.53C521.88 300.932 520.633 302.845 519.825 305.269C519.017 307.669 518.613 310.366 518.613 313.36V314.108ZM597.458 323.162C597.458 322.117 597.185 321.083 596.639 320.061C596.116 319.039 595.118 318.101 593.645 317.245C592.171 316.39 589.997 315.653 587.122 315.035C584.27 314.441 581.834 313.704 579.814 312.825C577.818 311.946 576.298 310.817 575.252 309.439C574.206 308.061 573.684 306.314 573.684 304.199C573.684 302.274 574.23 300.528 575.323 298.959C576.416 297.367 577.985 296.096 580.028 295.146C582.072 294.195 584.484 293.72 587.264 293.72C590.235 293.72 592.777 294.219 594.892 295.217C597.031 296.215 598.67 297.581 599.811 299.316C600.952 301.051 601.522 303.023 601.522 305.233H597.209C597.209 303.237 596.354 301.419 594.643 299.779C592.932 298.14 590.472 297.32 587.264 297.32C585.054 297.32 583.26 297.664 581.882 298.354C580.504 299.019 579.494 299.874 578.852 300.92C578.234 301.942 577.925 302.987 577.925 304.057C577.925 305.197 578.187 306.219 578.709 307.122C579.232 308.001 580.23 308.797 581.704 309.51C583.177 310.223 585.351 310.912 588.227 311.578C591.34 312.267 593.882 313.11 595.854 314.108C597.851 315.083 599.324 316.295 600.274 317.744C601.249 319.17 601.736 320.905 601.736 322.948C601.736 325.063 601.142 326.94 599.954 328.58C598.789 330.196 597.138 331.455 594.999 332.358C592.884 333.261 590.377 333.713 587.478 333.713C584.222 333.713 581.466 333.178 579.208 332.109C576.975 331.016 575.276 329.59 574.111 327.832C572.971 326.073 572.4 324.184 572.4 322.164H576.642C576.785 324.184 577.414 325.776 578.531 326.94C579.672 328.081 581.05 328.901 582.666 329.4C584.282 329.875 585.886 330.113 587.478 330.113C589.664 330.113 591.494 329.792 592.967 329.15C594.441 328.485 595.557 327.63 596.318 326.584C597.078 325.515 597.458 324.374 597.458 323.162ZM625.974 297.926H606.619V294.433H625.974V297.926ZM617.954 284.523V323.625C617.954 325.408 618.192 326.762 618.667 327.689C619.142 328.592 619.76 329.198 620.521 329.507C621.305 329.816 622.136 329.97 623.016 329.97C623.657 329.97 624.263 329.935 624.833 329.863C625.428 329.768 625.962 329.685 626.438 329.614L626.616 333.143C626.093 333.309 625.416 333.44 624.584 333.535C623.752 333.653 622.921 333.713 622.089 333.713C620.449 333.713 619 333.416 617.74 332.822C616.481 332.204 615.483 331.158 614.746 329.685C614.033 328.188 613.677 326.156 613.677 323.59V284.523H617.954ZM659.587 294.433H663.864V333H659.729L659.587 324.089V294.433ZM662.581 316.889C662.581 320.12 662.07 323.008 661.048 325.55C660.027 328.069 658.399 330.065 656.165 331.539C653.931 332.988 651.008 333.713 647.396 333.713C643.618 333.713 640.553 332.596 638.2 330.362C635.871 328.105 634.707 324.35 634.707 319.099V294.433H638.984V319.17C638.984 321.926 639.388 324.089 640.196 325.657C641.004 327.226 642.074 328.342 643.404 329.008C644.759 329.673 646.256 330.006 647.896 330.006C651.032 330.006 653.504 329.4 655.31 328.188C657.139 326.976 658.434 325.372 659.195 323.376C659.979 321.38 660.371 319.241 660.371 316.96L662.581 316.889ZM700.079 278.25H704.356V333H700.364L700.079 325.515V278.25ZM673.31 313.36C673.31 309.368 673.916 305.898 675.128 302.952C676.34 300.005 678.051 297.736 680.261 296.144C682.494 294.528 685.144 293.72 688.209 293.72C691.204 293.72 693.746 294.373 695.837 295.68C697.929 296.963 699.592 298.769 700.828 301.098C702.087 303.403 702.943 306.112 703.394 309.225V318.885C703.014 321.736 702.206 324.279 700.97 326.513C699.735 328.746 698.047 330.505 695.909 331.788C693.794 333.071 691.204 333.713 688.138 333.713C685.097 333.713 682.459 332.881 680.225 331.218C678.015 329.554 676.304 327.249 675.092 324.303C673.904 321.356 673.31 317.958 673.31 314.108V313.36ZM677.587 314.108C677.587 317.103 677.991 319.8 678.799 322.2C679.607 324.576 680.843 326.477 682.506 327.903C684.194 329.305 686.332 330.006 688.922 330.006C691.37 330.006 693.425 329.542 695.089 328.616C696.752 327.665 698.083 326.418 699.081 324.873C700.079 323.305 700.804 321.582 701.255 319.705V308.583C700.97 307.348 700.554 306.076 700.008 304.77C699.461 303.463 698.713 302.263 697.762 301.169C696.835 300.053 695.647 299.15 694.198 298.46C692.772 297.771 691.037 297.427 688.994 297.427C686.38 297.427 684.229 298.128 682.542 299.53C680.855 300.932 679.607 302.845 678.799 305.269C677.991 307.669 677.587 310.366 677.587 313.36V314.108ZM720.325 333H716.083V294.433H720.325V333ZM715.335 283.276C715.335 282.468 715.584 281.791 716.083 281.244C716.606 280.674 717.319 280.389 718.222 280.389C719.149 280.389 719.874 280.674 720.396 281.244C720.919 281.791 721.181 282.468 721.181 283.276C721.181 284.06 720.919 284.725 720.396 285.272C719.874 285.819 719.149 286.092 718.222 286.092C717.319 286.092 716.606 285.819 716.083 285.272C715.584 284.725 715.335 284.06 715.335 283.276ZM729.628 313.146C729.628 309.391 730.341 306.053 731.767 303.13C733.193 300.207 735.189 297.914 737.755 296.25C740.322 294.563 743.34 293.72 746.809 293.72C750.302 293.72 753.344 294.563 755.934 296.25C758.524 297.914 760.52 300.207 761.922 303.13C763.348 306.053 764.061 309.391 764.061 313.146V314.322C764.061 318.053 763.348 321.38 761.922 324.303C760.52 327.226 758.524 329.531 755.934 331.218C753.368 332.881 750.35 333.713 746.88 333.713C743.387 333.713 740.346 332.881 737.755 331.218C735.189 329.531 733.193 327.226 731.767 324.303C730.341 321.38 729.628 318.053 729.628 314.322V313.146ZM733.906 314.322C733.906 317.126 734.405 319.728 735.403 322.128C736.401 324.528 737.862 326.465 739.787 327.938C741.712 329.388 744.076 330.113 746.88 330.113C749.661 330.113 752.001 329.388 753.902 327.938C755.827 326.465 757.289 324.528 758.287 322.128C759.285 319.728 759.784 317.126 759.784 314.322V313.146C759.784 310.366 759.285 307.776 758.287 305.375C757.289 302.975 755.827 301.039 753.902 299.565C751.978 298.068 749.613 297.32 746.809 297.32C744.029 297.32 741.676 298.068 739.751 299.565C737.827 301.039 736.365 302.975 735.367 305.375C734.393 307.776 733.906 310.366 733.906 313.146V314.322Z" fill="white"/>
<path d="M345.444 125.722C340.978 125.97 337.691 126.466 335.582 127.21C333.597 127.955 332.232 129.381 331.488 131.49C330.744 133.599 330.372 137.01 330.372 141.724V234.019C330.372 238.733 330.744 242.145 331.488 244.254C332.232 246.363 333.597 247.789 335.582 248.534C337.691 249.278 340.978 249.774 345.444 250.022V253.744C339.738 253.372 331.86 253.186 321.812 253.186C311.144 253.186 303.204 253.372 297.994 253.744V250.022C302.46 249.774 305.685 249.278 307.67 248.534C309.779 247.789 311.206 246.363 311.95 244.254C312.694 242.145 313.066 238.733 313.066 234.019V134.281L268.221 254.674H265.244L218.352 133.909V232.159C218.352 236.997 218.724 240.594 219.469 242.951C220.337 245.308 221.95 247.045 224.307 248.161C226.664 249.154 230.323 249.774 235.285 250.022V253.744C230.819 253.372 224.493 253.186 216.305 253.186C208.862 253.186 203.094 253.372 199 253.744V250.022C203.342 249.774 206.567 249.154 208.676 248.161C210.785 247.045 212.212 245.308 212.956 242.951C213.7 240.47 214.072 236.873 214.072 232.159V141.724C214.072 137.01 213.7 133.599 212.956 131.49C212.212 129.381 210.785 127.955 208.676 127.21C206.691 126.466 203.466 125.97 199 125.722V122C203.094 122.372 208.862 122.558 216.305 122.558C222.756 122.558 228.028 122.372 232.122 122L273.059 229.74L313.066 122.558H321.812C331.86 122.558 339.738 122.372 345.444 122V125.722Z" fill="white"/>
<path d="M458.809 239.044C461.787 246.735 466.066 250.705 471.649 250.953V254.674C466.687 254.302 460.05 254.116 451.738 254.116C441.07 254.116 433.13 254.302 427.92 254.674V250.953C432.634 250.705 435.984 250.146 437.968 249.278C440.077 248.286 441.132 246.549 441.132 244.068C441.132 241.959 440.387 239.044 438.899 235.322L427.548 204.805H382.517L374.888 224.529C372.407 231.228 371.166 236.314 371.166 239.788C371.166 243.634 372.469 246.425 375.074 248.161C377.803 249.898 381.897 250.829 387.355 250.953V254.674C380.284 254.302 373.151 254.116 365.956 254.116C360.374 254.116 355.722 254.302 352 254.674V250.953C358.203 249.464 363.103 244.068 366.7 234.764L410.429 122H413.406L458.809 239.044ZM426.059 201.084L405.219 145.446L384.006 201.084H426.059Z" fill="white"/>
<path d="M525.8 122C547.757 122 564.194 127.52 575.11 138.561C586.027 149.478 591.485 165.418 591.485 186.383C591.485 199.905 588.818 211.752 583.484 221.924C578.15 232.097 570.396 239.974 560.224 245.556C550.176 251.015 538.143 253.744 524.125 253.744L513.332 253.558C506.385 253.31 501.299 253.186 498.074 253.186C487.901 253.186 480.21 253.372 475 253.744V250.022C479.466 249.774 482.691 249.278 484.676 248.534C486.785 247.789 488.212 246.363 488.956 244.254C489.7 242.145 490.072 238.733 490.072 234.019V141.724C490.072 137.01 489.7 133.599 488.956 131.49C488.212 129.381 486.785 127.955 484.676 127.21C482.691 126.466 479.466 125.97 475 125.722V122C479.342 122.372 485.358 122.558 493.05 122.558L508.866 122.372C517.302 122.124 522.946 122 525.8 122ZM521.148 125.349C517.302 125.349 514.387 125.784 512.402 126.652C510.541 127.52 509.239 129.071 508.494 131.304C507.75 133.537 507.378 136.886 507.378 141.352V234.392C507.378 238.858 507.75 242.207 508.494 244.44C509.239 246.673 510.541 248.223 512.402 249.092C514.387 249.96 517.364 250.394 521.334 250.394C534.483 250.394 544.842 248.037 552.409 243.323C559.976 238.485 565.248 231.476 568.226 222.297C571.327 213.117 572.877 201.394 572.877 187.128C572.877 172.862 571.203 161.263 567.853 152.331C564.504 143.275 559.046 136.514 551.478 132.048C544.035 127.582 533.925 125.349 521.148 125.349Z" fill="white"/>
<path d="M888.331 253.393C885.206 259.115 883 262.5 878.5 266C875.647 267.861 873.5 270 866.389 270C858.132 270 853.067 267.117 850.5 263C848.067 259.617 846.789 253.696 845.176 246.252L841.082 217.645C839.593 211.194 838.167 206.232 836.802 202.758C835.562 199.285 833.639 196.494 831.034 194.385C828.429 192.276 824.769 191.221 820.055 191.221H802.378V234.019C802.378 238.733 802.75 242.145 803.494 244.254C804.239 246.363 805.603 247.789 807.588 248.534C809.697 249.278 812.984 249.774 817.45 250.022V253.744C811.744 253.372 803.866 253.186 793.818 253.186C783.15 253.186 775.21 253.372 770 253.744V250.022C774.466 249.774 777.691 249.278 779.676 248.534C781.785 247.789 783.212 246.363 783.956 244.254C784.7 242.145 785.072 238.733 785.072 234.019V141.724C785.072 137.01 784.7 133.599 783.956 131.49C783.212 129.381 781.785 127.955 779.676 127.21C777.691 126.466 774.466 125.97 770 125.722V122C775.21 122.372 782.777 122.558 792.702 122.558L812.798 122.372C815.155 122.248 817.822 122.186 820.8 122.186C835.19 122.186 846.23 125.225 853.922 131.304C861.737 137.258 865.645 145.012 865.645 154.564C865.645 159.402 864.466 164.302 862.109 169.264C859.876 174.102 856.03 178.506 850.572 182.476C845.238 186.321 838.229 188.926 829.545 190.291L831.778 190.663C839.966 192.028 845.92 194.509 849.642 198.106C853.363 201.704 856.092 207.41 857.829 215.226L862.481 244.206C863.722 249.912 865.024 256.882 866.389 259.115C867.753 261.348 870.614 262.464 872.971 262.464C875.08 262.464 877.135 262.116 878.5 261C880.5 259.5 883.5 256 885.206 253.393H888.331ZM816.148 125.722C812.302 125.722 809.387 126.156 807.402 127.024C805.541 127.892 804.239 129.443 803.494 131.676C802.75 133.909 802.378 137.258 802.378 141.724V187.5H814.845C827.126 187.5 835.562 184.771 840.152 179.312C844.742 173.854 847.037 166.287 847.037 156.611C847.037 146.438 844.618 138.747 839.78 133.537C834.942 128.327 827.064 125.722 816.148 125.722Z" fill="white"/>
<path d="M984.809 239.044C987.787 246.735 992.066 250.705 997.649 250.953V254.674C992.687 254.302 986.05 254.116 977.738 254.116C967.07 254.116 959.13 254.302 953.92 254.674V250.953C958.634 250.705 961.984 250.146 963.968 249.278C966.077 248.286 967.132 246.549 967.132 244.068C967.132 241.959 966.387 239.044 964.899 235.322L953.548 204.805H908.517L900.888 224.529C898.407 231.228 897.166 236.314 897.166 239.788C897.166 243.634 898.469 246.425 901.074 248.161C903.803 249.898 907.897 250.829 913.355 250.953V254.674C906.284 254.302 899.151 254.116 891.956 254.116C886.374 254.116 881.722 254.302 878 254.674V250.953C884.203 249.464 889.103 244.068 892.7 234.764L936.429 122H939.406L984.809 239.044ZM952.059 201.084L931.219 145.446L910.006 201.084H952.059Z" fill="white"/>
<path d="M1119.86 125.722C1115.52 125.97 1112.29 126.652 1110.18 127.768C1108.07 128.761 1106.65 130.498 1105.9 132.979C1105.16 135.336 1104.79 138.871 1104.79 143.585V254.674H1100.51L1022.35 133.909V232.159C1022.35 236.997 1022.72 240.594 1023.47 242.951C1024.34 245.308 1025.95 247.045 1028.31 248.161C1030.66 249.154 1034.32 249.774 1039.29 250.022V253.744C1034.82 253.372 1028.49 253.186 1020.31 253.186C1012.86 253.186 1007.09 253.372 1003 253.744V250.022C1007.34 249.774 1010.57 249.154 1012.68 248.161C1014.78 247.045 1016.21 245.308 1016.96 242.951C1017.7 240.47 1018.07 236.873 1018.07 232.159V141.724C1018.07 137.01 1017.7 133.599 1016.96 131.49C1016.21 129.381 1014.78 127.955 1012.68 127.21C1010.69 126.466 1007.47 125.97 1003 125.722V122C1007.09 122.372 1012.86 122.558 1020.31 122.558C1025.89 122.558 1030.73 122.372 1034.82 122L1100.51 223.227V143.585C1100.51 138.747 1100.07 135.15 1099.2 132.793C1098.46 130.436 1096.91 128.761 1094.55 127.768C1092.19 126.652 1088.53 125.97 1083.57 125.722V122C1088.04 122.372 1094.36 122.558 1102.55 122.558C1110 122.558 1115.76 122.372 1119.86 122V125.722Z" fill="white"/>
<path d="M719.778 184.15C733.424 186.011 743.162 189.981 748.993 196.059C754.823 202.014 757.738 209.209 757.738 217.645C757.738 224.716 755.94 230.98 752.342 236.439C748.744 241.897 743.596 246.177 736.897 249.278C730.199 252.255 722.259 253.744 713.079 253.744C709.73 253.744 706.877 253.682 704.52 253.558C696.58 253.31 688.765 253.186 681.074 253.186C670.901 253.186 663.21 253.372 658 253.744V250.022C662.466 249.774 665.691 249.278 667.676 248.534C669.785 247.789 671.212 246.363 671.956 244.254C672.7 242.145 673.072 238.733 673.072 234.019V141.724C673.072 137.01 672.7 133.599 671.956 131.49C671.212 129.381 669.785 127.955 667.676 127.21C665.691 126.466 662.466 125.97 658 125.722V122C663.21 122.372 670.777 122.558 680.702 122.558L700.798 122.372C703.155 122.248 705.822 122.186 708.8 122.186C721.453 122.186 731.129 124.853 737.828 130.187C744.651 135.522 748.062 142.593 748.062 151.4C748.062 158.596 745.767 165.046 741.177 170.753C736.711 176.459 729.578 180.801 719.778 183.778V184.15ZM704.148 125.722C700.302 125.722 697.387 126.156 695.402 127.024C693.541 127.892 692.239 129.443 691.494 131.676C690.75 133.909 690.378 137.258 690.378 141.724V183.778H702.845C713.017 183.778 720.088 181.049 724.058 175.591C728.152 170.008 730.199 162.627 730.199 153.447C730.199 144.143 728.152 137.196 724.058 132.606C719.964 128.017 713.327 125.722 704.148 125.722ZM704.334 249.464C727.531 249.464 739.13 238.609 739.13 216.9C739.13 207.1 736.463 199.657 731.129 194.571C725.919 189.485 717.545 186.942 706.008 186.942H690.378V234.019C690.378 238.485 690.75 241.773 691.494 243.882C692.239 245.991 693.541 247.479 695.402 248.348C697.387 249.092 700.364 249.464 704.334 249.464Z" fill="white"/>
<path d="M1187.17 120C1194.62 120 1200.94 121.054 1206.15 123.163C1211.36 125.272 1216.45 128.25 1221.41 132.095C1222.78 133.212 1223.95 133.77 1224.95 133.77C1227.43 133.77 1229.04 130.048 1229.79 122.605H1234.06C1233.57 130.669 1233.32 144.935 1233.32 165.403H1229.04C1227.68 157.34 1226.44 151.571 1225.32 148.098C1224.2 144.5 1222.34 141.089 1219.74 137.864C1216.02 133.026 1211.24 129.428 1205.41 127.071C1199.7 124.59 1193.5 123.349 1186.8 123.349C1178.74 123.349 1171.67 126.017 1165.59 131.351C1159.63 136.685 1154.98 144.314 1151.63 154.239C1148.28 164.039 1146.61 175.576 1146.61 188.849C1146.61 202.371 1148.41 213.97 1152 223.646C1155.6 233.322 1160.56 240.703 1166.89 245.789C1173.34 250.751 1180.6 253.232 1188.66 253.232C1194.86 253.232 1200.88 252.054 1206.71 249.697C1212.54 247.34 1217.13 243.804 1220.48 239.09C1222.96 235.617 1224.76 231.895 1225.88 227.926C1226.99 223.956 1228.05 217.877 1229.04 209.69H1233.32C1233.32 231.027 1233.57 245.913 1234.06 254.349H1229.79C1229.41 250.379 1228.85 247.588 1228.11 245.975C1227.49 244.239 1226.56 243.37 1225.32 243.37C1224.33 243.37 1223.02 243.867 1221.41 244.859C1215.83 248.829 1210.49 251.868 1205.41 253.977C1200.32 255.962 1194.18 256.954 1186.99 256.954C1175.2 256.954 1164.84 254.287 1155.91 248.953C1147.1 243.618 1140.22 235.927 1135.26 225.879C1130.42 215.707 1128 203.611 1128 189.593C1128 175.948 1130.48 163.853 1135.44 153.308C1140.53 142.764 1147.54 134.576 1156.47 128.746C1165.53 122.915 1175.76 120 1187.17 120Z" fill="white"/>
<path d="M1379.23 125.722C1374.77 125.97 1371.48 126.466 1369.37 127.21C1367.38 127.955 1366.02 129.381 1365.28 131.49C1364.53 133.599 1364.16 137.01 1364.16 141.724V234.019C1364.16 238.733 1364.53 242.145 1365.28 244.254C1366.02 246.363 1367.38 247.789 1369.37 248.534C1371.48 249.278 1374.77 249.774 1379.23 250.022V253.744C1374.02 253.372 1366.08 253.186 1355.41 253.186C1345.36 253.186 1337.49 253.372 1331.78 253.744V250.022C1336.25 249.774 1339.47 249.278 1341.46 248.534C1343.57 247.789 1344.99 246.363 1345.74 244.254C1346.48 242.145 1346.85 238.733 1346.85 234.019V189.361H1286.38V234.019C1286.38 238.733 1286.75 242.145 1287.49 244.254C1288.24 246.363 1289.6 247.789 1291.59 248.534C1293.7 249.278 1296.98 249.774 1301.45 250.022V253.744C1295.74 253.372 1287.87 253.186 1277.82 253.186C1267.15 253.186 1259.21 253.372 1254 253.744V250.022C1258.47 249.774 1261.69 249.278 1263.68 248.534C1265.78 247.789 1267.21 246.363 1267.96 244.254C1268.7 242.145 1269.07 238.733 1269.07 234.019V141.724C1269.07 137.01 1268.7 133.599 1267.96 131.49C1267.21 129.381 1265.78 127.955 1263.68 127.21C1261.69 126.466 1258.47 125.97 1254 125.722V122C1259.21 122.372 1267.15 122.558 1277.82 122.558C1287.74 122.558 1295.62 122.372 1301.45 122V125.722C1296.98 125.97 1293.7 126.466 1291.59 127.21C1289.6 127.955 1288.24 129.381 1287.49 131.49C1286.75 133.599 1286.38 137.01 1286.38 141.724V185.639H1346.85V141.724C1346.85 137.01 1346.48 133.599 1345.74 131.49C1344.99 129.381 1343.57 127.955 1341.46 127.21C1339.47 126.466 1336.25 125.97 1331.78 125.722V122C1337.49 122.372 1345.36 122.558 1355.41 122.558C1366.08 122.558 1374.02 122.372 1379.23 122V125.722Z" fill="white"/>
</svg>
